<mxfile host="65bd71144e">
    <diagram id="f106602c-feb2-e66a-4537-3a34d633f6aa" name="Page-1">
        <mxGraphModel dx="733" dy="1146" grid="1" gridSize="10" guides="1" tooltips="1" connect="1" arrows="1" fold="1" page="1" pageScale="1" pageWidth="1169" pageHeight="827" background="none" math="0" shadow="0">
            <root>
                <mxCell id="0"/>
                <mxCell id="1" parent="0"/>
                <mxCell id="Lif8JBEafslfNm7ranTe-1" value="&lt;b&gt;Google &lt;/b&gt;Cloud Platform" style="fillColor=#F6F6F6;strokeColor=none;shadow=0;gradientColor=none;fontSize=14;align=left;spacing=10;fontColor=#717171;9E9E9E;verticalAlign=top;spacingTop=-4;fontStyle=0;spacingLeft=40;html=1;" parent="1" vertex="1">
                    <mxGeometry x="340" y="179" width="460" height="331" as="geometry"/>
                </mxCell>
                <mxCell id="Lif8JBEafslfNm7ranTe-2" value="" style="shape=mxgraph.gcp2.google_cloud_platform;fillColor=#F6F6F6;strokeColor=none;shadow=0;gradientColor=none;" parent="Lif8JBEafslfNm7ranTe-1" vertex="1">
                    <mxGeometry width="23" height="20" relative="1" as="geometry">
                        <mxPoint x="20" y="10" as="offset"/>
                    </mxGeometry>
                </mxCell>
                <mxCell id="Lif8JBEafslfNm7ranTe-3" value="Multiple&lt;br&gt;Clients&lt;br&gt;API Requests&lt;br&gt;" style="rounded=1;absoluteArcSize=1;arcSize=2;html=1;strokeColor=none;gradientColor=none;shadow=0;dashed=0;fontSize=12;fontColor=#9E9E9E;align=left;verticalAlign=top;spacing=10;spacingTop=-4;fillColor=#F1F8E9;" parent="1" vertex="1">
                    <mxGeometry x="230" y="220" width="90" height="230" as="geometry"/>
                </mxCell>
                <mxCell id="Lif8JBEafslfNm7ranTe-4" value="Architecture: Backup and Archive &amp;gt; API Hosting" style="fillColor=#4DA1F5;strokeColor=none;shadow=1;gradientColor=none;fontSize=14;align=left;spacingLeft=50;fontColor=#ffffff;html=1;" parent="1" vertex="1">
                    <mxGeometry x="180" y="120" width="650" height="40" as="geometry"/>
                </mxCell>
                <mxCell id="Lif8JBEafslfNm7ranTe-5" style="edgeStyle=orthogonalEdgeStyle;rounded=0;elbow=vertical;html=1;labelBackgroundColor=none;startFill=1;startSize=4;endArrow=blockThin;endFill=1;endSize=4;jettySize=auto;orthogonalLoop=1;strokeColor=#4284F3;strokeWidth=2;fontSize=12;fontColor=#000000;align=left;dashed=0;" parent="1" source="Lif8JBEafslfNm7ranTe-3" target="cEKSAHbCaNsN3OeEtTBm-5" edge="1">
                    <mxGeometry relative="1" as="geometry">
                        <Array as="points">
                            <mxPoint x="570" y="335"/>
                            <mxPoint x="570" y="255"/>
                        </Array>
                    </mxGeometry>
                </mxCell>
                <mxCell id="Lif8JBEafslfNm7ranTe-6" value="" style="strokeColor=#dddddd;fillColor=#ffffff;shadow=1;strokeWidth=1;rounded=1;absoluteArcSize=1;arcSize=2;labelPosition=center;verticalLabelPosition=middle;align=center;verticalAlign=bottom;spacingLeft=0;fontColor=#999999;fontSize=12;whiteSpace=wrap;spacingBottom=2;html=1;" parent="1" vertex="1">
                    <mxGeometry x="240" y="280" width="70" height="70" as="geometry"/>
                </mxCell>
                <mxCell id="Lif8JBEafslfNm7ranTe-7" value="" style="dashed=0;connectable=0;html=1;fillColor=#757575;strokeColor=none;shape=mxgraph.gcp2.mobile_devices;part=1;" parent="Lif8JBEafslfNm7ranTe-6" vertex="1">
                    <mxGeometry x="0.5" width="50" height="36.5" relative="1" as="geometry">
                        <mxPoint x="-25" y="16.75" as="offset"/>
                    </mxGeometry>
                </mxCell>
                <mxCell id="Lif8JBEafslfNm7ranTe-8" style="edgeStyle=elbowEdgeStyle;rounded=0;elbow=vertical;html=1;labelBackgroundColor=none;startFill=1;startSize=4;endArrow=blockThin;endFill=1;endSize=4;jettySize=auto;orthogonalLoop=1;strokeColor=#4284F3;strokeWidth=2;fontSize=12;fontColor=#000000;align=left;dashed=0;" parent="1" target="cEKSAHbCaNsN3OeEtTBm-1" edge="1">
                    <mxGeometry relative="1" as="geometry">
                        <mxPoint x="330" y="405" as="sourcePoint"/>
                    </mxGeometry>
                </mxCell>
                <mxCell id="Lif8JBEafslfNm7ranTe-11" style="edgeStyle=orthogonalEdgeStyle;rounded=0;elbow=vertical;html=1;labelBackgroundColor=none;startFill=1;startSize=4;endArrow=blockThin;endFill=1;endSize=4;jettySize=auto;orthogonalLoop=1;strokeColor=#4284F3;strokeWidth=2;fontSize=12;fontColor=#000000;align=left;dashed=0;" parent="1" source="cEKSAHbCaNsN3OeEtTBm-1" target="cEKSAHbCaNsN3OeEtTBm-3" edge="1">
                    <mxGeometry relative="1" as="geometry">
                        <Array as="points">
                            <mxPoint x="570" y="405"/>
                            <mxPoint x="570" y="355"/>
                        </Array>
                    </mxGeometry>
                </mxCell>
                <mxCell id="Lif8JBEafslfNm7ranTe-12" style="edgeStyle=orthogonalEdgeStyle;rounded=0;elbow=vertical;html=1;labelBackgroundColor=none;startFill=1;startSize=4;endArrow=blockThin;endFill=1;endSize=4;jettySize=auto;orthogonalLoop=1;strokeColor=#4284F3;strokeWidth=2;fontSize=12;fontColor=#000000;align=left;dashed=0;" parent="1" source="cEKSAHbCaNsN3OeEtTBm-1" target="cEKSAHbCaNsN3OeEtTBm-7" edge="1">
                    <mxGeometry relative="1" as="geometry">
                        <Array as="points">
                            <mxPoint x="570" y="405"/>
                            <mxPoint x="570" y="455"/>
                        </Array>
                    </mxGeometry>
                </mxCell>
                <mxCell id="cEKSAHbCaNsN3OeEtTBm-3" value="" style="strokeColor=#dddddd;shadow=1;strokeWidth=1;rounded=1;absoluteArcSize=1;arcSize=2;" parent="1" vertex="1">
                    <mxGeometry x="595" y="325" width="185" height="60" as="geometry"/>
                </mxCell>
                <mxCell id="cEKSAHbCaNsN3OeEtTBm-4" value="&lt;font color=&quot;#000000&quot;&gt;Virtual Machines API&lt;/font&gt;&lt;br&gt;Compute Engine" style="editableCssRules=.*;html=1;fontColor=#999999;shape=image;verticalLabelPosition=middle;verticalAlign=middle;labelPosition=right;align=left;spacingLeft=20;part=1;points=[];imageAspect=0;image=data:image/svg+xml,PHN2ZyB4bWxucz0iaHR0cDovL3d3dy53My5vcmcvMjAwMC9zdmciIHhtbG5zOnY9Imh0dHBzOi8vdmVjdGEuaW8vbmFubyIgd2lkdGg9IjIwIiBoZWlnaHQ9IjIwIiB2aWV3Qm94PSIwIDAgMjAgMjAiPiYjeGE7CTxzdHlsZSB0eXBlPSJ0ZXh0L2NzcyI+JiN4YTsJLnN0MHtmaWxsOiM0Mjg1ZjQ7fSYjeGE7CS5zdDF7ZmlsbDojNjY5ZGY2O30mI3hhOwkuc3Qye2ZpbGw6I2FlY2JmYTt9JiN4YTsJPC9zdHlsZT4mI3hhOwk8cGF0aCBjbGFzcz0ic3QyIiBkPSJNNyA3aDZ2Nkg3eiIvPiYjeGE7CTxwYXRoIGNsYXNzPSJzdDEiIGQ9Ik05IDBoMnY0SDl6TTUgMGgydjRINXptOCAwaDJ2NGgtMnoiLz4mI3hhOwk8cGF0aCBjbGFzcz0ic3QwIiBkPSJNOSAxNmgydjRIOXptLTQgMGgydjRINXptOCAwaDJ2NGgtMnptMy01VjloNHYyem0wIDR2LTJoNHYyem0wLThWNWg0djJ6Ii8+JiN4YTsJPHBhdGggY2xhc3M9InN0MSIgZD0iTTAgMTFWOWg0djJ6bTAgNHYtMmg0djJ6bTAtOFY1aDR2MnoiLz4mI3hhOwk8cGF0aCBjbGFzcz0ic3QyIiBkPSJNMyAzdjE0aDE0VjN6bTEyIDEySDVWNWgxMHoiLz4mI3hhOwk8cGF0aCBjbGFzcz0ic3QxIiBkPSJNMTAgMTBsLTMgM2g2eiIvPiYjeGE7CTxwYXRoIGNsYXNzPSJzdDAiIGQ9Ik0xMyA3bC0zIDMgMyAzeiIvPiYjeGE7PC9zdmc+;" parent="cEKSAHbCaNsN3OeEtTBm-3" vertex="1">
                    <mxGeometry width="30" height="30" relative="1" as="geometry">
                        <mxPoint x="15" y="15" as="offset"/>
                    </mxGeometry>
                </mxCell>
                <mxCell id="cEKSAHbCaNsN3OeEtTBm-5" value="" style="strokeColor=#dddddd;shadow=1;strokeWidth=1;rounded=1;absoluteArcSize=1;arcSize=2;" parent="1" vertex="1">
                    <mxGeometry x="595" y="225" width="185" height="60" as="geometry"/>
                </mxCell>
                <mxCell id="cEKSAHbCaNsN3OeEtTBm-6" value="&lt;font color=&quot;#000000&quot;&gt;Cloud Enpoints API&lt;/font&gt;&lt;br&gt;App Engine" style="editableCssRules=.*;html=1;fontColor=#999999;shape=image;verticalLabelPosition=middle;verticalAlign=middle;labelPosition=right;align=left;spacingLeft=20;part=1;points=[];imageAspect=0;image=data:image/svg+xml,PHN2ZyB4bWxucz0iaHR0cDovL3d3dy53My5vcmcvMjAwMC9zdmciIHhtbG5zOnY9Imh0dHBzOi8vdmVjdGEuaW8vbmFubyIgd2lkdGg9IjIwIiBoZWlnaHQ9IjE2LjAyMDAwMDQ1Nzc2MzY3MiIgZmlsbC1ydWxlPSJldmVub2RkIiB2aWV3Qm94PSI4Ljk0MDY5NjcxNjMwODU5NGUtOCAwIDIwIDE2LjAyMDAwMDQ1Nzc2MzY3MiI+JiN4YTsJPHN0eWxlIHR5cGU9InRleHQvY3NzIj4mI3hhOwkuc3Qwe2ZpbGw6IzQyODVmNDt9JiN4YTsJLnN0MXtmaWxsOiNhZWNiZmE7fSYjeGE7CS5zdDJ7ZmlsbDojNjY5ZGY2O30mI3hhOwk8L3N0eWxlPiYjeGE7CTxwYXRoIGNsYXNzPSJzdDAiIGQ9Ik0xMi4zIDcuMjZsLTEuMjIgMS4yMkExLjcxIDEuNzEgMCAwIDEgMTAgMTEuNDlhMS43NCAxLjc0IDAgMCAxLTEuMzMtLjY0bC0xLjIyIDEuMjJhMy40MyAzLjQzIDAgMCAwIDUuOTg0LTEuMzgxQTMuNDMgMy40MyAwIDAgMCAxMi4zIDcuMjZ6Ii8+JiN4YTsJPHBhdGggY2xhc3M9InN0MSIgZD0iTTEwIDMuNTJhNi4yNSA2LjI1IDAgMCAwIDAgMTIuNSA2LjI1IDYuMjUgMCAwIDAgMC0xMi41bTAgMTAuNzRhNC40NSA0LjQ1IDAgMCAxLTMuMTU3LTcuNTk3QTQuNDUgNC40NSAwIDAgMSAxNC40NCA5LjgyIDQuNDQgNC40NCAwIDAgMSAxMCAxNC4yNiIvPiYjeGE7CTxwYXRoIGNsYXNzPSJzdDIiIGQ9Ik0xOS42MiA5LjE2bC0yLjU2LS44MWE3LjEgNy4xIDAgMCAxIC4xNyAxLjUzIDcuNjIgNy42MiAwIDAgMS0uMDggMS4wOGgyLjQ3YS40NC40NCAwIDAgMCAuMzgtLjQydi0xYS40NC40NCAwIDAgMC0uMzgtLjQyTTEwIDIuNzhhNy40OCA3LjQ4IDAgMCAxIDEuNS4xNUwxMC41OC4zOGMtLjA3LS4yMi0uMjEtLjM4LS40Mi0uMzhoLS4zOGEuNDUuNDUgMCAwIDAtLjQyLjM4bC0uOCAyLjU0QTcuNjQgNy42NCAwIDAgMSAxMCAyLjc4bS03LjIzIDcuMWE3LjEgNy4xIDAgMCAxIC4xNy0xLjUzbC0yLjU2LjgxYS40NC40NCAwIDAgMC0uMzguNDJ2MWEuNDQuNDQgMCAwIDAgLjM4LjQyaDIuNDdhNy42MiA3LjYyIDAgMCAxLS4wOC0xLjA4Ii8+JiN4YTsJPHBhdGggY2xhc3M9InN0MSIgZD0iTTEwIDcuMjZhMi41IDIuNSAwIDEgMCAwIDUgMi41IDIuNSAwIDEgMCAwLTV6bTAgMy43NWExLjI1IDEuMjUgMCAxIDEgMC0yLjUgMS4yNSAxLjI1IDAgMCAxIDEuMjUgMS4yNUExLjI1IDEuMjUgMCAwIDEgMTAgMTEuMDJ6Ii8+JiN4YTs8L3N2Zz4=;" parent="cEKSAHbCaNsN3OeEtTBm-5" vertex="1">
                    <mxGeometry width="30" height="24" relative="1" as="geometry">
                        <mxPoint x="15" y="18" as="offset"/>
                    </mxGeometry>
                </mxCell>
                <mxCell id="cEKSAHbCaNsN3OeEtTBm-7" value="" style="strokeColor=#dddddd;shadow=1;strokeWidth=1;rounded=1;absoluteArcSize=1;arcSize=2;" parent="1" vertex="1">
                    <mxGeometry x="595" y="425" width="185" height="60" as="geometry"/>
                </mxCell>
                <mxCell id="cEKSAHbCaNsN3OeEtTBm-8" value="&lt;font color=&quot;#000000&quot;&gt;Name&lt;/font&gt;&lt;br&gt;Kubernetes Engine" style="editableCssRules=.*;html=1;fontColor=#999999;shape=image;verticalLabelPosition=middle;verticalAlign=middle;labelPosition=right;align=left;spacingLeft=20;part=1;points=[];imageAspect=0;image=data:image/svg+xml,PHN2ZyB4bWxucz0iaHR0cDovL3d3dy53My5vcmcvMjAwMC9zdmciIHhtbG5zOnY9Imh0dHBzOi8vdmVjdGEuaW8vbmFubyIgd2lkdGg9IjMyOS45MjU5OTcyMzE3OTM4IiBoZWlnaHQ9IjM3OC4yODQ5OTAzMTEyNzg4IiB2aWV3Qm94PSIwIDAgODcuMjkyOTk5MjY3NTc4MTIgMTAwLjA4Nzk5NzQzNjUyMzQ0Ij4mI3hhOzxzdHlsZSB0eXBlPSJ0ZXh0L2NzcyI+JiN4YTsJLnN0MHtmaWxsOiNhZWNiZmE7fSYjeGE7CS5zdDF7ZmlsbDojNjY5ZGY2O30mI3hhOwkuc3Qye2ZpbGw6IzQyODVmNDt9JiN4YTs8L3N0eWxlPiYjeGE7CTxwYXRoIGNsYXNzPSJzdDAiIGQ9Ik00My43NTEgMEwwIDI1LjQ2NXYyLjU4OCA0Ni45Mmw0My43NTIgMjUuMTE1IDQzLjU0MS0yNS4xMjFWMjUuNDczem0yLjQzOCAxMS44NTNsMzIuMTAzIDE4Ljc4MlY2OS43N0w0My43MzkgODkuNzA1IDkgNjkuNzYyVjMwLjY0MWwzMi4xOS0xOC43MzZ2MTQuMTU0TDI0LjUwMyAzNi4xNTNsMTkuMTcyIDExLjUwMiAxOC44ODYtMTEuNTU0LTE2LjM3Mi0xMC4wMjR6Ii8+JiN4YTsJPHBhdGggY2xhc3M9InN0MSIgZD0iTTIyLjAyNSA0MC40OTZsLjE2NiAxOS4xNDMtMTMuMjQ3IDcuMzN2Mi43NDJsMi42MzcgMS41MTQgMTIuNjQ4LTYuOTk5IDE2Ljk2MSAxMC42MDJWNTEuOTkzeiIvPiYjeGE7CTxwYXRoIGNsYXNzPSJzdDIiIGQ9Ik02NS4zNDQgNDAuMjZMNDYuMTg5IDUxLjk3OXYyMi44NDdsMTYuODk5LTEwLjU3NiAxMi41MzkgNi45NzQgMi42MDktMS41MDV2LTIuNzY1bC0xMi43ODQtNy4xMTJ6Ii8+JiN4YTs8L3N2Zz4=;" parent="cEKSAHbCaNsN3OeEtTBm-7" vertex="1">
                    <mxGeometry width="26" height="30" relative="1" as="geometry">
                        <mxPoint x="17" y="15" as="offset"/>
                    </mxGeometry>
                </mxCell>
                <mxCell id="cEKSAHbCaNsN3OeEtTBm-1" value="" style="strokeColor=#dddddd;shadow=1;strokeWidth=1;rounded=1;absoluteArcSize=1;arcSize=2;" parent="1" vertex="1">
                    <mxGeometry x="359" y="375" width="190" height="60" as="geometry"/>
                </mxCell>
                <mxCell id="cEKSAHbCaNsN3OeEtTBm-2" value="&lt;font color=&quot;#000000&quot;&gt;Name&lt;/font&gt;&lt;br&gt;Cloud Load Balancing" style="editableCssRules=.*;html=1;fontColor=#999999;shape=image;verticalLabelPosition=middle;verticalAlign=middle;labelPosition=right;align=left;spacingLeft=20;part=1;points=[];imageAspect=0;image=data:image/svg+xml,PHN2ZyB4bWxucz0iaHR0cDovL3d3dy53My5vcmcvMjAwMC9zdmciIHhtbG5zOnY9Imh0dHBzOi8vdmVjdGEuaW8vbmFubyIgd2lkdGg9IjIwIiBoZWlnaHQ9IjIwIiB2aWV3Qm94PSIwIDAgMjAgMjAiPiYjeGE7CTxzdHlsZSB0eXBlPSJ0ZXh0L2NzcyI+JiN4YTsJLnN0MHtmaWxsOiM0Mjg1ZjQ7fSYjeGE7CS5zdDF7ZmlsbDojNjY5ZGY2O30mI3hhOwkuc3Qye2ZpbGw6I2FlY2JmYTt9JiN4YTsJPC9zdHlsZT4mI3hhOwk8cGF0aCBjbGFzcz0ic3QxIiBkPSJNMTYgMTBoMnY0aC0yem0tNyAwaDJ2NEg5em0tNyAwaDJ2NEgyeiIvPiYjeGE7CTxwYXRoIGNsYXNzPSJzdDAiIGQ9Ik05IDVoMnY0SDl6Ii8+JiN4YTsJPHBhdGggY2xhc3M9InN0MSIgZD0iTTIgOWgxNnYySDJ6Ii8+JiN4YTsJPHBhdGggY2xhc3M9InN0MiIgZD0iTTQgMGgxMnY1SDR6Ii8+JiN4YTsJPHBhdGggY2xhc3M9InN0MSIgZD0iTTEwIDBoNnY1aC02eiIvPiYjeGE7CTxwYXRoIGNsYXNzPSJzdDIiIGQ9Ik0xNCAxNGg2djZoLTZ6TTAgMTRoNnY2SDB6Ii8+JiN4YTsJPHBhdGggY2xhc3M9InN0MSIgZD0iTTMgMTRoM3Y2SDN6Ii8+JiN4YTsJPHBhdGggY2xhc3M9InN0MiIgZD0iTTcgMTRoNnY2SDd6Ii8+JiN4YTsJPHBhdGggY2xhc3M9InN0MSIgZD0iTTEwIDE0aDN2NmgtM3ptNyAwaDN2NmgtM3oiLz4mI3hhOzwvc3ZnPg==;" parent="cEKSAHbCaNsN3OeEtTBm-1" vertex="1">
                    <mxGeometry width="30" height="30" relative="1" as="geometry">
                        <mxPoint x="15" y="15" as="offset"/>
                    </mxGeometry>
                </mxCell>
                <mxCell id="2" value="" style="shape=mxgraph.gcp2.doubleRect;strokeColor=#dddddd;shadow=1;strokeWidth=1;rounded=1;absoluteArcSize=1;arcSize=2;" vertex="1" parent="1">
                    <mxGeometry x="486" y="767" width="198" height="68" as="geometry"/>
                </mxCell>
                <mxCell id="3" value="&lt;font color=&quot;#000000&quot;&gt;Name&lt;/font&gt;&lt;br&gt;Natural Language API" style="editableCssRules=.*;html=1;fontColor=#999999;shape=image;verticalLabelPosition=middle;verticalAlign=middle;labelPosition=right;align=left;spacingLeft=20;part=1;points=[];imageAspect=0;image=data:image/svg+xml,PHN2ZyB4bWxucz0iaHR0cDovL3d3dy53My5vcmcvMjAwMC9zdmciIHhtbG5zOnY9Imh0dHBzOi8vdmVjdGEuaW8vbmFubyIgd2lkdGg9IjIwIiBoZWlnaHQ9IjE2IiB2aWV3Qm94PSIwIDAgMjAgMTYiPiYjeGE7CTxzdHlsZSB0eXBlPSJ0ZXh0L2NzcyI+JiN4YTsJLnN0MHtmaWxsOiM2NjlkZjY7fSYjeGE7CS5zdDF7ZmlsbDojNDI4NWY0O30mI3hhOwkuc3Qye2ZpbGw6I2FlY2JmYTt9JiN4YTsJPC9zdHlsZT4mI3hhOwk8cGF0aCBjbGFzcz0ic3QwIiBkPSJNMTUgMmgzdjEyaC0zdjJoMyAydi0yVjIgMGgtMi0zeiIvPiYjeGE7CTxwYXRoIGNsYXNzPSJzdDEiIGQ9Ik0xOCAydjFsMi0xem0yIDEydi0xbC0yIDF6Ii8+JiN4YTsJPHBhdGggY2xhc3M9InN0MCIgZD0iTTUgMTRIMlYyaDNWMEgyIDB2MiAxMiAyaDIgM3oiLz4mI3hhOwk8cGF0aCBjbGFzcz0ic3QxIiBkPSJNMCAxNHYtMWwyIDF6TTIgMnYxTDAgMnoiLz4mI3hhOwk8cGF0aCBjbGFzcz0ic3QyIiBkPSJNNSA3aDEwdjJINXptMCAzaDEwdjJINXptMC02aDEwdjJINXoiLz4mI3hhOzwvc3ZnPg==;" vertex="1" parent="2">
                    <mxGeometry width="30" height="24" relative="1" as="geometry">
                        <mxPoint x="15" y="18" as="offset"/>
                    </mxGeometry>
                </mxCell>
                <mxCell id="4" value="" style="strokeColor=#dddddd;shadow=1;strokeWidth=1;rounded=1;absoluteArcSize=1;arcSize=2;" vertex="1" parent="1">
                    <mxGeometry x="455" y="555" width="130" height="60" as="geometry"/>
                </mxCell>
                <mxCell id="5" value="&lt;font color=&quot;#000000&quot;&gt;Name&lt;/font&gt;&lt;br&gt;Datastore" style="editableCssRules=.*;html=1;fontColor=#999999;shape=image;verticalLabelPosition=middle;verticalAlign=middle;labelPosition=right;align=left;spacingLeft=20;part=1;points=[];imageAspect=0;image=data:image/svg+xml,PHN2ZyB4bWxucz0iaHR0cDovL3d3dy53My5vcmcvMjAwMC9zdmciIHhtbG5zOnY9Imh0dHBzOi8vdmVjdGEuaW8vbmFubyIgd2lkdGg9IjMwIiBoZWlnaHQ9IjIxIiB2aWV3Qm94PSIwIDAgMzAgMjEiPiYjeGE7CTxzdHlsZSB0eXBlPSJ0ZXh0L2NzcyI+JiN4YTsJLnN0MHtmaWxsOiM0Mjg1ZjQ7fSYjeGE7CS5zdDF7ZmlsbDojNjY5ZGY2O30mI3hhOwkuc3Qye2ZpbGw6I2FlY2JmYTt9JiN4YTsJLnN0M3tmaWxsOiNmZmY7fSYjeGE7CTwvc3R5bGU+JiN4YTsJPHBhdGggZD0iTTAgMGwxLjUgMS41aDZMOSAweiIgY2xhc3M9InN0MiIvPiYjeGE7CTxwYXRoIGQ9Ik05IDlWMEw3LjUgMS41djZ6IiBjbGFzcz0ic3QxIi8+JiN4YTsJPHBhdGggZD0iTTAgOWwxLjUtMS41di02TDAgMHoiIGNsYXNzPSJzdDIiLz4mI3hhOwk8cGF0aCBkPSJNOSA5TDcuNSA3LjVoLTZMMCA5eiIgY2xhc3M9InN0MCIvPiYjeGE7CTxwYXRoIGQ9Ik0xLjUgMS41aDZ2NmgtNnoiIGNsYXNzPSJzdDIiLz4mI3hhOwk8cGF0aCBkPSJNMTAuNSAwTDEyIDEuNWg2TDE5LjUgMHoiIGNsYXNzPSJzdDAiLz4mI3hhOwk8cGF0aCBkPSJNMTkuNSA5VjBMMTggMS41djZ6IiBjbGFzcz0ic3QxIi8+JiN4YTsJPHBhdGggZD0iTTEwLjUgOUwxMiA3LjV2LTZMMTAuNSAweiIgY2xhc3M9InN0MCIvPiYjeGE7CTxwYXRoIGQ9Ik0xOS41IDlMMTggNy41aC02TDEwLjUgOXoiIGNsYXNzPSJzdDEiLz4mI3hhOwk8cGF0aCBkPSJNMTIgMS41aDZ2NmgtNnoiIGNsYXNzPSJzdDMiLz4mI3hhOwk8cGF0aCBkPSJNMjEgMGwxLjUgMS41aDZMMzAgMHoiIGNsYXNzPSJzdDAiLz4mI3hhOwk8cGF0aCBkPSJNMzAgOVYwbC0xLjUgMS41djZ6IiBjbGFzcz0ic3QxIi8+JiN4YTsJPHBhdGggZD0iTTIxIDlsMS41LTEuNXYtNkwyMSAweiIgY2xhc3M9InN0MCIvPiYjeGE7CTxwYXRoIGQ9Ik0zMCA5bC0xLjUtMS41aC02TDIxIDl6IiBjbGFzcz0ic3QxIi8+JiN4YTsJPHBhdGggZD0iTTIyLjUgMS41aDZ2NmgtNnoiIGNsYXNzPSJzdDMiLz4mI3hhOwk8cGF0aCBkPSJNMCAxMmwxLjUgMS41aDZMOSAxMnoiIGNsYXNzPSJzdDAiLz4mI3hhOwk8cGF0aCBkPSJNOSAyMXYtOWwtMS41IDEuNXY2eiIgY2xhc3M9InN0MSIvPiYjeGE7CTxwYXRoIGQ9Ik0wIDIxbDEuNS0xLjV2LTZMMCAxMnoiIGNsYXNzPSJzdDAiLz4mI3hhOwk8cGF0aCBkPSJNOSAyMWwtMS41LTEuNWgtNkwwIDIxeiIgY2xhc3M9InN0MSIvPiYjeGE7CTxwYXRoIGQ9Ik0xLjUgMTMuNWg2djZoLTZ6IiBjbGFzcz0ic3QzIi8+JiN4YTsJPHBhdGggZD0iTTEwLjUgMTJsMS41IDEuNWg2bDEuNS0xLjV6IiBjbGFzcz0ic3QyIi8+JiN4YTsJPHBhdGggZD0iTTE5LjUgMjF2LTlMMTggMTMuNXY2eiIgY2xhc3M9InN0MSIvPiYjeGE7CTxwYXRoIGQ9Ik0xMC41IDIxbDEuNS0xLjV2LTZMMTAuNSAxMnoiIGNsYXNzPSJzdDIiLz4mI3hhOwk8cGF0aCBkPSJNMTkuNSAyMUwxOCAxOS41aC02TDEwLjUgMjF6IiBjbGFzcz0ic3QwIi8+JiN4YTsJPHBhdGggZD0iTTEyIDEzLjVoNnY2aC02em05LTEuNWwxLjUgMS41aDZMMzAgMTJ6IiBjbGFzcz0ic3QyIi8+JiN4YTsJPHBhdGggZD0iTTMwIDIxdi05bC0xLjUgMS41djZ6IiBjbGFzcz0ic3QxIi8+JiN4YTsJPHBhdGggZD0iTTIxIDIxbDEuNS0xLjV2LTZMMjEgMTJ6IiBjbGFzcz0ic3QyIi8+JiN4YTsJPHBhdGggZD0iTTMwIDIxbC0xLjUtMS41aC02TDIxIDIxeiIgY2xhc3M9InN0MCIvPiYjeGE7CTxwYXRoIGQ9Ik0yMi41IDEzLjVoNnY2aC02eiIgY2xhc3M9InN0MiIvPiYjeGE7PC9zdmc+;" vertex="1" parent="4">
                    <mxGeometry width="30" height="21" relative="1" as="geometry">
                        <mxPoint x="15" y="19" as="offset"/>
                    </mxGeometry>
                </mxCell>
                <mxCell id="6" value="" style="strokeColor=#dddddd;shadow=1;strokeWidth=1;rounded=1;absoluteArcSize=1;arcSize=2;" vertex="1" parent="1">
                    <mxGeometry x="490" y="900" width="130" height="60" as="geometry"/>
                </mxCell>
                <mxCell id="7" value="Cloud&#xa;Storage" style="editableCssRules=.*;html=1;fontColor=#999999;shape=image;verticalLabelPosition=middle;verticalAlign=middle;labelPosition=right;align=left;spacingLeft=20;part=1;points=[];imageAspect=0;image=data:image/svg+xml,PHN2ZyB4bWxucz0iaHR0cDovL3d3dy53My5vcmcvMjAwMC9zdmciIHhtbG5zOnY9Imh0dHBzOi8vdmVjdGEuaW8vbmFubyIgd2lkdGg9IjIwIiBoZWlnaHQ9IjE2IiB2aWV3Qm94PSIwIDAgMjAgMTYiPiYjeGE7CTxzdHlsZSB0eXBlPSJ0ZXh0L2NzcyI+JiN4YTsJLnN0MHtmaWxsOiM0Mjg1ZjQ7fSYjeGE7CS5zdDF7ZmlsbDojNjY5ZGY2O30mI3hhOwkuc3Qye2ZpbGw6I2FlY2JmYTt9JiN4YTsJLnN0M3tmaWxsOiNmZmY7fSYjeGE7CTwvc3R5bGU+JiN4YTsJPHBhdGggY2xhc3M9InN0MiIgZD0iTTAgMGgyMHY3SDB6Ii8+JiN4YTsJPHBhdGggY2xhc3M9InN0MSIgZD0iTTE4IDBoMnY3aC0yeiIvPiYjeGE7CTxwYXRoIGNsYXNzPSJzdDAiIGQ9Ik0xOCA3bDItN2gtMnoiLz4mI3hhOwk8cGF0aCBjbGFzcz0ic3QxIiBkPSJNMCAwaDJ2N0gweiIvPiYjeGE7CTxnIGNsYXNzPSJzdDMiPiYjeGE7CQk8cGF0aCBkPSJNNCAzaDZ2MUg0eiIvPiYjeGE7CQk8cmVjdCB4PSIxMyIgeT0iMiIgd2lkdGg9IjMiIGhlaWdodD0iMyIgcng9IjEuNSIvPiYjeGE7CTwvZz4mI3hhOwk8cGF0aCBjbGFzcz0ic3QyIiBkPSJNMCA5aDIwdjdIMHoiLz4mI3hhOwk8cGF0aCBjbGFzcz0ic3QxIiBkPSJNMTggOWgydjdoLTJ6Ii8+JiN4YTsJPHBhdGggY2xhc3M9InN0MCIgZD0iTTE4IDE2bDItN2gtMnoiLz4mI3hhOwk8cGF0aCBjbGFzcz0ic3QxIiBkPSJNMCA5aDJ2N0gweiIvPiYjeGE7CTxnIGNsYXNzPSJzdDMiPiYjeGE7CQk8cGF0aCBkPSJNNCAxMmg2djFINHoiLz4mI3hhOwkJPHJlY3QgeD0iMTMiIHk9IjExIiB3aWR0aD0iMyIgaGVpZ2h0PSIzIiByeD0iMS41Ii8+JiN4YTsJPC9nPiYjeGE7PC9zdmc+;" vertex="1" parent="6">
                    <mxGeometry width="30" height="24" relative="1" as="geometry">
                        <mxPoint x="15" y="18" as="offset"/>
                    </mxGeometry>
                </mxCell>
                <mxCell id="10" value="" style="strokeColor=#dddddd;shadow=1;strokeWidth=1;rounded=1;absoluteArcSize=1;arcSize=2;" vertex="1" parent="1">
                    <mxGeometry x="340" y="1090" width="160" height="60" as="geometry"/>
                </mxCell>
                <mxCell id="11" value="Cloud Native&lt;br&gt;AI" style="editableCssRules=.*;html=1;fontColor=#999999;shape=image;verticalLabelPosition=middle;verticalAlign=middle;labelPosition=right;align=left;spacingLeft=20;part=1;points=[];imageAspect=0;image=data:image/svg+xml,PHN2ZyB4bWxucz0iaHR0cDovL3d3dy53My5vcmcvMjAwMC9zdmciIHhtbG5zOnY9Imh0dHBzOi8vdmVjdGEuaW8vbmFubyIgd2lkdGg9IjIwIiBoZWlnaHQ9IjE3LjUiIGZpbGwtcnVsZT0iZXZlbm9kZCIgdmlld0JveD0iMCAwIDIwIDE3LjUiPiYjeGE7CTxzdHlsZSB0eXBlPSJ0ZXh0L2NzcyI+JiN4YTsJLnN0MHtmaWxsOiM0Mjg1ZjQ7fSYjeGE7CS5zdDF7ZmlsbDojNjY5ZGY2O30mI3hhOwk8L3N0eWxlPiYjeGE7CTxwYXRoIGNsYXNzPSJzdDAiIGQ9Ik0xOC45MSAxMC42M0wyMCA4Ljc1IDE3LjgyIDVoLTMuMDdsLTEuMDYtMS44NkgxMi41VjEuODhoMS45NGwxLjA2IDEuODdoMS41OUwxNC45IDBoLTQuMjd2NWgxLjczbC43MyAxLjI1aC0yLjQ2djIuNWgyLjI2bDEuMDUtMS44N2gyLjgxbC43MiAxLjI1aC0yLjhMMTMuNjIgMTBoLTIuOTl2NC4zOGgzLjRsLS43MiAxLjI1aC0yLjY4djEuODdoNC4yN2wzLjI4LTUuNjJoLTIuMDlsLS43MyAxLjI1SDEyLjV2LTEuMjVoMi4xNGwuNzQtMS4yNXoiLz4mI3hhOwk8cGF0aCBjbGFzcz0ic3QxIiBkPSJNMS4wOSAxMC42M0wwIDguNzUgMi4xOCA1aDMuMDdsMS4wNi0xLjg2SDcuNVYxLjg4SDUuNTZMNC41IDMuNzVIMi45MUw1LjEgMGg0LjI4djVINy42NGwtLjczIDEuMjVoMi40N3YyLjVINy4xMUw2LjA2IDYuODhIMy4yNWwtLjcyIDEuMjVoMi44TDYuMzggMTBoM3Y0LjM4SDUuOTdsLjcyIDEuMjVoMi42OXYxLjg3SDUuMWwtMy4yOC01LjYyaDIuMDlsLjczIDEuMjVINy41di0xLjI1SDUuMzZsLS43NC0xLjI1eiIvPiYjeGE7PC9zdmc+;" vertex="1" parent="10">
                    <mxGeometry width="30" height="27" relative="1" as="geometry">
                        <mxPoint x="15" y="16" as="offset"/>
                    </mxGeometry>
                </mxCell>
                <mxCell id="12" value="Desktop" style="strokeColor=#dddddd;shadow=1;strokeWidth=1;rounded=1;absoluteArcSize=1;arcSize=2;labelPosition=center;verticalLabelPosition=middle;align=center;verticalAlign=bottom;spacingLeft=0;fontColor=#999999;fontSize=12;whiteSpace=wrap;spacingBottom=2;html=1;" vertex="1" parent="1">
                    <mxGeometry x="180" y="530" width="70" height="85" as="geometry"/>
                </mxCell>
                <mxCell id="13" value="" style="sketch=0;dashed=0;connectable=0;html=1;fillColor=#757575;strokeColor=none;shape=mxgraph.gcp2.desktop;part=1;" vertex="1" parent="12">
                    <mxGeometry x="0.5" width="50" height="45" relative="1" as="geometry">
                        <mxPoint x="-25" y="12.5" as="offset"/>
                    </mxGeometry>
                </mxCell>
                <mxCell id="14" value="Desktop and Mobile" style="strokeColor=#dddddd;shadow=1;strokeWidth=1;rounded=1;absoluteArcSize=1;arcSize=2;labelPosition=center;verticalLabelPosition=middle;align=center;verticalAlign=bottom;spacingLeft=0;fontColor=#999999;fontSize=12;whiteSpace=wrap;spacingBottom=2;html=1;" vertex="1" parent="1">
                    <mxGeometry x="180" y="630" width="70" height="100" as="geometry"/>
                </mxCell>
                <mxCell id="15" value="" style="sketch=0;dashed=0;connectable=0;html=1;fillColor=#757575;strokeColor=none;shape=mxgraph.gcp2.desktop_and_mobile;part=1;" vertex="1" parent="14">
                    <mxGeometry x="0.5" width="50" height="33" relative="1" as="geometry">
                        <mxPoint x="-25" y="18.5" as="offset"/>
                    </mxGeometry>
                </mxCell>
                <mxCell id="16" value="Laptop" style="strokeColor=#dddddd;shadow=1;strokeWidth=1;rounded=1;absoluteArcSize=1;arcSize=2;labelPosition=center;verticalLabelPosition=middle;align=center;verticalAlign=bottom;spacingLeft=0;fontColor=#999999;fontSize=12;whiteSpace=wrap;spacingBottom=2;html=1;" vertex="1" parent="1">
                    <mxGeometry x="180" y="750" width="70" height="85" as="geometry"/>
                </mxCell>
                <mxCell id="17" value="" style="sketch=0;dashed=0;connectable=0;html=1;fillColor=#757575;strokeColor=none;shape=mxgraph.gcp2.laptop;part=1;" vertex="1" parent="16">
                    <mxGeometry x="0.5" width="50" height="33" relative="1" as="geometry">
                        <mxPoint x="-25" y="18.5" as="offset"/>
                    </mxGeometry>
                </mxCell>
                <mxCell id="18" value="" style="shape=image;verticalLabelPosition=bottom;labelBackgroundColor=default;verticalAlign=top;aspect=fixed;imageAspect=0;image=data:image/avif,AAAAHGZ0eXBhdmlmAAAAAGF2aWZtaWYxbWlhZgAAAOptZXRhAAAAAAAAACFoZGxyAAAAAAAAAABwaWN0AAAAAAAAAAAAAAAAAAAAAA5waXRtAAAAAAABAAAAImlsb2MAAAAAREAAAQABAAAAAAEOAAEAAAAAAABB+gAAACNpaW5mAAAAAAABAAAAFWluZmUCAAAAAAEAAGF2MDEAAAAAamlwcnAAAABLaXBjbwAAABNjb2xybmNseAABAA0ABoAAAAAMYXYxQ4EIDAAAAAAUaXNwZQAAAAAAAAVkAAAFZAAAABBwaXhpAAAAAAMICAgAAAAXaXBtYQAAAAAAAAABAAEEAYIDBAAAQgJtZGF0EgAKChoqqx1j4ICGg0Iy6IMBEUABBBBBQPS6zcsvSJeizFlnAqBu3t30fjYuEvipkh4FqG1gPDrS/b8GQU0HF1+Kg7lUEXWCppGVq4jVvKp0uR+fbh7kBcmAZz97/M06SEoXbYBMrS3zDlmHJlFo8rzWsFlFlbadVRbbq2IAeZ2wAHPrL66PLAEpS9GhzEUL5N/9L57iYNZ2SRgUVGa6jZ4Zhjp/zL8fJVgU94g5fGar4wObZrJldcpoMMx8tQkhI263fJ7MSXqNR8G/l0X4Yui8Sw9Jjz7kvSYlr6okXqKzMwwnFAt+ow+OqyBO8PBFoZ4AaPAvNB/8A5b49QeKRVTCSOISBZwJRZ5spv3ELgllzmhPmsZ8LYE7C+8QT2DypTufIrFrF2wQmr469MPFdIeNkcUdXko79AKq7SMDvQk+L37Y4aiSxVNvP6kfrGi0uMnBpWCOCefIvN+XgF62+ZwCh7pwsq62PSMkCSVtVQs7OHp6HdY2uQ9VClkaBW1XcmGjLKhnnTkKlNNKw7z+/QER9ADtSAwXl7W/lws8JWytp+ktzSGlUgEKYel6YoO0hEZ02NE4lRmCJwWKrWoz4aJ2/o/HaCuMZMag6Yv/vYUp/B+UuLZaEdgPVcnCUQEWQ63qXKLdjqBCfBx/TzUvG/OW1mGxMA4la4Kh9T53h8l07UwH+r4hnqSn2uOqnFBY6asxQCHm2mb/ZNyIiMJt7cFkwVIsIcEV/GydAKQ6FUo+EUDzk1xzLK+aRZ1DPhOF0ieGuzCA8JN4GKE74JSkzO3WuXUH+rhe7U49fFZs+bOgnJDtnx1xvhB+G+I4Lw/VDQqNMVP2cmJR5/K/9ZDUYSad9hzG4a9cLCCFwTOU8JphiN5ZXqP97Lu42ybCmkV9kLZ7PK13AsHpYjh9SVOL3gXUgczFvpAh5oJAq06dM79NaE6bG1pQmWToKAKHVTg9gOSKEvS6l1bRzkD2qdkcuBU0KnZGP10vZK6FxrOnYnUFDmRPZzzJh6X8wxUuJHF8M89WLyNgGK1XJ+KuMg5uRKUF9zAxAk8Em4ZlbQE6mY26JgJQmyUJ2v0OPmZipHdE1r9Vtf/TncX2/7UWJ78CtPsGLjsy3FsjV800YqA18Q4IUm/KOtRrlYB0CQfGy8MNO6lhmAUWfgJCtVTmvOMLFYgZgCmp4qJkC58w9rKD1kFKDQLOek0yyGgPXZl5TZmKgaR/n8+8H2ORO1SPpL4HfaGU6JQIJHKxM1Hj4DVa4rXGUnKzkKDnnTG1m46b5ml+bubc6PPUt+dvIVzuFH6RTXhOaLlIM0ufNbn4w7qaWA6xjaYE1pBHOIwRYVcmLOV/7r4BL9N9NbN1OoMzRbvsbohzxMucMDaM9A0gP9RDAKs/R5nW95PFad16YmHs3t2lIYHCB2s4WZHxEpabLfw9Qcp+55GlNC8SUIwhR3tH8DzgGgMWfuD9LuhwLe6mJeTltJSnm4p27HiABRqNVY85dw+GgkdtPDq/doVciow6qwhhR1Ptd6aQjBTKBrTl68+oSYRYzNnjYGI88tl6ISZQW+Uoey+tqyV8rYkciLXd5Rhcg7eD3ENr6o0jJ2XEVMIosy/4fjw0OqLMp0ivUYoYTgfWViaGpch9rFkyvafv5w+KyROh3hXykY44InL54Q6IfJ6Y+Q0QkhNbS36rhaH4CyreXXNNy45yMPqaBFmyGIYDalkP40Brr7slfstR238ROKVt2wjhRvZiq1GTAlOzsTCJy1pnla9xyawfT9uKTPitZuiFIy6YGebt4IQvtv9MlKfZLV7l+c5FcjdL0XaQEg+Qo19kNoR/JbUIgJE7oPToNY3iqhUjjaKQObABC06132a78Ev+nVBReD0WtZ3JRX04l6lAdKuYv4fdDbA1ZPZc76m/wMoVwKXFXriIBZba/Bh6wi5N2U8t2CLjKV46CFadDBUmfUPtbIT7fGiruoQsjYEbJkKSBDhx6p9HgNqXTANIQ8nfTf1IkIGzRFT/ugTa7069TwmlkgmgbhR2c6qEuUuwhUDECKfWbccLf0GuZJFPs+uSKTBF541OagiTdbayn2dzV2HwwRjsx6KbuqgjB9RNiffPFDRvgZPYyNy0HkMEtXr7ONbjdl0I92B8qukC4t61041mWwVmcyvLUQJqXxQ9Xb7h710fSfl44cuLP3TDslJh3pMqQKt1blt+Y90pPEWazzb5NkXcG2jQ+HMRmi5BtjZRkvPw1L44SSo5pnV4AZDU9mx94P7oEuJIvzYG83jvZ3H78IvJGTJZE0QmEgA0gHnyNO7G5KyKdYW+AlBj88S3u4dzBzGdv86F1LaBEjRUl+mSFgVbnRUQC9PfZ46YPk6OHciD0XoZx/BaCPZ2CZc2JvJR8zvleifC3j0LPBiQwzNLdzUPMfv9Eq45bnDDi6gHSpC0KuCZ/jG4OxLSbWGdFF7m3Z4vxn24IMvXCWMKk9g8rLhvwbPFTp5AeJDFAXkd28vjDuvr5xZB0jLiOSOdmCj8IwCFa2sjN2kVbqa5ep+puL3cw39OqDFmaxFEvKWlEMyVeIKMLZ9NqT31FnBW+pYSax75nKVmYG5OJf1h5xXAAOukiXe2cgi8kI5QCfp8NdYkR5Wv4p8FAy7qxwdG4Z1i+Nlu703/DyemB81HDqUue3m2Gf34x84us6TNyZKvxnukAvZLV6dc57JKn7ZAuHtixd24q7KQROd17XRAYQmm3kEqLqonxPtKK7ZDXOsb4EVhZHh5AHGK1bXtIcm/loaWC+WW6ahCjcc/ZprwayZpc2aZpqtVEcty8jiL3fmIqukmhDFjjKm2EIJZR/SgrqrLnma2afKPCg3OpeRU/bXqTQ2k7dTYgeHIrezeBh4h3pMfMBzzMXwZzbak+BMbJOAof51A5FV1YcSO7Tb/K3t1yJxywxbONsY3HkMwrEcqpaFbTkLq++krwtW5mudwFzho1P5EpsMk2RpT0Xpff2C4kUSYTHXMJjguY/hortvHWMRZf9x15PDfiYn+fpfvQtVrCKECX4Gny7QN21R5JfwqS7EKYZVCrF24jFMVcdY6Ts6trC384atpwyC1DL+7LASue7B6ofjMBndq7XzSp2yD4FazT0A4Wz7G0hn6AB19wE3buoAuLKbMTX6ZJZKcibXS8Y5IUnQkjsl8NFjOg9h2wbyOU0mJ7JVbxvRVREiqwIzViUuajmQUU6FgTFKqFfw2PTKoS0pgbga8y0hOSv9E7rzqWUzolLJNJkmvhAE6UBPBe5/ES2Us2bhuPvuWFf1Xmmxa9+WdOKMZqPgCJtb+6hq4ih+ZjQ+IxTKjbjHTp5fP2FOhnorXkg3EUDh1sYfnKDXpV4RMhf4Aauj6Y5uLkH84YtzjONOQt1ztZPoLzn2FjZHKMQ7GM5Pt3RyWQGUnRuQEg3Mvu4fwkFMvvwkb5Ajq103Y5FvF2Gsj1KbeDrUfgmrZCMDAWIz6np06OD9SEXodPpzYgpaTKxk6pB/qrwGTIyLIgA3zKQiwX4yVnb6hbyw8FEAwkxMR9SaAUqIBC6UjmMhcRLCivVsTFwUlnH4bDSBoykZdJ58iFyKTwj9RF7IqYayqAd4HdLd8/YA90So1++IM/ZYKK/V9te5aQkDZHq1HFxcqRMYgums7IpBsKRUUrCxSlTBdE3Sj5TYSobR8a5b3g/2grUdfslCHjQBB2x0kiaGfL/MKp1Zo3HzWK1q2Zl2fjtTjRWJilDNARdA1QXw1DhrOKXz+GS0INaELUlYhO8CwGFIhmjAM8rDfeJGn5j3Zcdgbv0zfFr7Scl1rSwmGbeHyBxLmvtZm95nW8BmOWcLIIuVZNgH94AWo30ppyZR1sHMiR1OX1potInNtwYrorRmmnzlHj8Fi8/XpKS1JtqUtIVko0EFm9guxCybmyLZroapy6PfmP30tBGAgxlTgkzo3IBGj/COqxMqj4MjI4tSk8F6fGNAqGqoufZGFEVLTfzqvOZ/3PDX/HFTvvLXstiy+6Ng4kj1lgy4mareDHf2+oJ5xvPZuchSFYnf1RN1Ua3mkZYvi3ZrRy+TkU94WQd98fy6BiXYFLpRmizwFUT0hT/6mCQt+aVBFuWlkvIhLGlRexJSCGqYrfd1GuehY8nHqy9MkELLREWaHiM5RXq3gwraDVBCdBGI6XqNK4s4Mo/s2KhywH45Y+DeRXmfydwxRdSzUREH6M8f+SB7dqb1mbUYogfU96Q5FhhxlaoWTZ9hfn5Um64arlJNNPlCVcuA6Zd7ekxVNY0dsW1ciLkh2KsiRwtX9Eq7BG6oxA6BZX+ASaGgF7mz91JhtHHbNSAm6o7CRoowHPxptrGpojR+cv3yk2GCBZACiDXc86Wa15WkVidRI2ZSC4NKdB82x4W+cVhavg5Rdujg9U7aoY75DmybEhIVcLDnLx4nCtXUHeGFLf5gGpSIiUY3UTAtydlrX3W8pxHLPgOBowYpd7Fj8Y4cXU4DwrcyCgJKJ4XL6e4vgcAvlkFFZTYtTfyOYf9kIvlNPi5tWikLpKhe9NfP+Bi8xMVU65drxDkZFb0UTzj27v0WuNlqAZsTUR/PktRi7F8X37uLRHJLRzA5IXNSBYPg77cNONUoE+fj6L2ikFf3AhXfs596YGotE3Rf3x19EJ99cdpvjbrf6pGfHTlT/QNq+IhoDcgo5ISuoBlJEcyZLsXvtsv+izY82zL0JT4xhkfEYDZamwUgLwy8GLRmuU8LWSzXSpLazY7bu4WfXtYXSjOKHldgYS7MBs/sKoGAf/PAAuPQ8T6bimcYPWfY9Xg36m6BqsXwx5btWsTTemOaSHAQoFiLVCq1qqbbWzgzwczYE38Bm3UKmMakgAHOLD5UVVRgWR0Yzaf0boys8oR9YGmYI7j0yb1lvWR2PUotZPAmsO0hyTTAB6Fpmgq8JvugXxQ0wuZlL+5iYLfyYwN287NuprBc7Dtsq23NkM2SEw0miuyj6lOR2M14xPVpTK19P2vWKv9oaeLpZd1rfi3GRY1kZi1ss2etNiwELVf/s/0JW0RaXqG33ghBDiRkgvLiea0/5TumvEw0EIcKktDb3Cs2k1BY+fTVFHF049Up845NRFtDCEOef+niaewoSjkes3Wm2Gw4Kq59/XJPMOHic0GkEaGXF3W0sY0nILncy2ozNLU/JPzecI2k3uFgNtR8cSVXJyl1Kb25+eU6LdA8h1pmq+TqCsms0vyvx7fbmswtGivTlBBwG+2nHbucIKYZ56Gg2vpXY6B0z/zzUcWw8ZwAKDO2SeCRWT4nXytGPGS+YD9FZctbYgf1ooyRqwhzw+yI0aBnbKPSgYjzXphbR/wmMuHhAiLlCxUUAVK28qy6jlLdUi/kEsaDD9uV448nfDiC+HQtis4kt/WA2H0XzwEvOq88Oqp+3fCal/rhTkhhauEpI/Ls/ZH1DyHiqCLT/dm4+YV1zVosEcy98l41cZTrmerv5FWy9AH3F1L2QfRKIRvsqD8mekAUDOPsNEfYHhS2zdKD5K/Stzz5iNK/P9dFuwYAaCfSAy1EiNv8/lHxt1fLQAwPnOzCx2oaOhYsDMYnRyUm382MF02Q4osiWbsYj85I3N8Aba/pwjhpeNRimWCi3pxObC7Ss1IhXYPVYu7FHigLlUck+icrdIsZtZKj1zezjjXEwezVkvBhUUSJuOwu5ZZFapip9nQFghzEkar+c0K+KQTC36x3Dhyo0h1/taBSmYbpZU/lnqwN/92PB8aU2cyluRgISZnjQDcADVnAQ3VQ8UqeQrT5VZQOuBHLbA3WU1n9KdKQDrM2WmfACl1ca4qgVEGVsWsOjsopC7h9DScA0flVFo+t361lhzA0UC4DUY6FXDV9cUtCaQaq5rl4hdlkqmgZLXuYsrVgF9ab81ViVt4qZFKUL5QK9DM5wfmZSP4wlF3keWV/Dw1vxjMPEN03Std8UEQb9l8MZd/NZeYVPYb64emmZhje7glc962/mpGyFOvmW2z5Fh7FpbLh3CW/LdeB0jii2W9/IN2tKYHrbKI7gShiOOn3vz9Omg0Tx8DCJt2e2UX1ATuh83J6/5eX6Cf6uhYLC3LEhzN7TP8jozI341X/FJSSdvkghjA7qrXNXcz8QLV2RrXp8+P2jB1dSwQRVePmJjAwGOqJb+fuEI+Y5j8hQ0zUhkNByi16Qih/CP/deoZzLHaI3kVRAq6akcDSbgYegq1uJg9MQtt/anLrYiIlzMq5exqwTdoa5WUoh/L49BcljAr2IRGc5LHymCkWx+dlpzj7XDodmle7ULak4xdTwDxwSMdqud+CQctzECtcKLsNM+daZlnfZqd8WiefgsTThLgWMiyT3JztsFNyuzr63tix9Ripr0a43Tmpw8UXzViMC7mD1qcXlQZD+EnXgUXw3Qbg6cL9KKxXDf/8xLta1f12xvOQlJdwwiBDkToMh410SEOsivHNDHGYnLLd/pmnsryq2+iIs/mrbfdoyBkWE+diN7NdJ12WPBo1kH8C7UGtiCqWPUpw2foLdYAp++vUCRJHvVI8x3UhsqS73FyL7Nb9dVXEW7+KkOB2f42LT0NsyOceV9HAyVYjIKayUZjYZTZcfJANJh0o7DzX8UAVbnCkIt/JMTfBIs6qmmGLI+zcqTeC5n8w9lJuuxqFZKsi3t+NBMv834r8zIBbO2LLSQxxqp+R77YdDHNkKYlYQKtpZVnifU6FwtkMo6oTFmT1atXt05HP+uQ26fTDe0bXWkEHFsEY9Mf80Q0km7DWszuA28dOgzoVYnPo6MJWhXHFyMTDyBBP14vOp6LRA7FolabFUDRemu3vM7XGyAgo4+fvYAyJ/pBZ1X+/W3p8sTvRQNFm37NYQjqo7xWprf4pGD0nRNtAM8+H02fBCLDCySyoRRbc2Svp/l7nVN277B8Uc7x8ca6Z9qr6IdltTbdaTycD1vPEQjDsJZZ4+THfIxakNXRsEt42DDS3yo+0tvY0uJFwPFbigsoLaM/KpsbxuWChxKNCF57xsj4VFbwyC4NqQcHE7twzpV0DZCUoJmBdVfRUDH4nfyVwxxCX5xE6kdX0FG8qM8TPeNHZuEQ4y/PzTCjBY8fJgeMhEJagB8U1Ns0WQxEGHCd0jcYV55c31QYfICJ0znOOsQ28qOOD6+jStS9RQ5TGNCDW2saozGxtEARmdRfUv9bNWCw8vY1jgG7i+089oq7rbWz40esjyg41syEqf+5NJCcowjOcx5EQYUcTHR2zsxxCXvlDX7oWMTKSxfv7iAu2oK7bLPXRzeUaDxo3LuKydOJ09Y8oWUO7BfMzVtbWYEG+CTYDsQbupRBARYXQSWnyDTSBhAEkS1LQ0SU+WenDfMCbxh6T0zwRWW+rpQsM3yiYlUQCVAcPfpnSUifQg7Dc2DjKuwrrwN6dyJsEwDV08yYOp/94JFERCXl2YgNwaxukkOAWqRVIBWOlO/9cMhf3dtLj3II/HRHXLUoDdqMhHgwCyTLOrsDp1xU48X7JOMaRyj69bRzFE5I1Lo6Wf8uTnLUNWciTSOs9bnUwIBk6XQzKCDrhvHSL9tai+F0O1poc9YN0vmivtIfqA9X0najn5hQoUotse9UiVrl7qpMyUHdRYEGtoklARAY9OuLXYYhEReoQkg8WNg3WQ21MBLdumE+wTROD4D0ATMGBEFc+Kx4KPj9IyKS0Q+VDjoMVO1dFb9f+2mSWZI02ybEtbrGfnBHdhFQ3dcJPf3d1VYfw7ARpG3u6pQLYru6G1SE4YBDNZbwlXuWjKooZXwM0wl+ksHQw8wiWxSJk5nQzgjO63RycYdOYuAOfnQHqomyptmJTm+JjfETPF27iorleIrJfpj4zGs9T+ek3pwI61/8MUWdUQ7nWn9pGqY2eqtN12ukpnyPvDYl2VYCdf02XnBhAbyzpgFMGVEkXGcLulrovqYXuGb5Ds+Smh+S7zJL/XyZ+did0CP8K74bcEGEV3B5TlI20ZN7qi6DRxglk5TjSjQ2bvigDysrZtRZw3xYjWC+DTe2dcWid/2FwZwdh/8PNXHBEQ8QKxi6KeyAXcovyOkhoSNgvw57PoWT/3HMJ5ZEbOkUIfFV1hPi+LrF9yrY0op5UaAi53/afeLjhoFQUS8I/ZotOmY6Ch7E0PM/NTU3em++6ZpMZsacUFtdR+K0P99EJOc/wuIqfIwTQRZwFZfLqaqyNxuHVx8LDmj0jj4fQ2dXfvraN69Jfwur5p2EdgbSl06c9Ejuap/nsyTOuG1S6BY2ey2Fv+dAFiMMTrcW+VDmA8VtUm2jjxXRf0Nj6gLfTJe9oegNfwBDN/9Prfxp7l6Xbxxs48qWq1+wUph8yzLFRj27VoxWlOxuaoD3c6YvYofhOR9dITc1VFjFB4KsjLa5edvDDRTKOhjccBB4qznmYVPyvvlKvseHZ14RYYAkreKcqiirfwXWCx4U48PrSYFj3SO1cmQXkvtNYJYFZ5kWV+0Anlf9y8GqgTeLOMy+hN2P2GEHFO0lEkIFoz3QZa/CZj0WJT1TAYz4EryYCeJgv7d3akmZBw4G0uQK6fW8J5iGCDM5rUTg56VSCytHx13uwJXyksdcG22Ggvnf+gzhFoOsYiQWEa1W5Lrl3aBzL7AcjRYCkcL7PDLOFwD3jSJsoUmFu+FcRQmqKYxmaIrEgTaE/HHOcKxSax5fR+p3d344e5PLKv+dP8ijtvUkLnEnfCZSIvEvA46oPIMDxutKY2WEW16KuNi/uOlZZbN8VvzEbDXn02dvTrg87nB4ovTepX7XykVirb1oRYLOOHah+XajZnXThLTcr9FUHVo/WLGUOHca+rZhLTsZh2QamTDZMXxjwHfTNEqHoYHYCUzD9AjHcn0CA8NKVMix5UPuW0jSFY1G0XGOuLBDq08hqAWTxy6UcpcWVvj5iBIUtE4HSg3jjjcmHCDcmE1DAWxktYBGADXw3HnpBuCJyL+axMhGvlicssiSzCpFVgUJe/7EIwYhMfV1QxLL7wnWPrdRIU0D/zsvNhA2V771brIeDPoWca/LukZxCe50MfRaClWqf9qF4KZfGi65kf2rD8UxNRD2tELBdF0rcvZXPRLnT47N/0KlxaTnV8W6otu9pwdEdr409iomyRYsXpGoI0uBfjsa1BlcZrnb+Lh0WRp8rYsjjY6YdGKgMVqMzkFUX1w/n+s1s2X1fDDH4KNxhn38RpdgoULHTXHf7dwjg7pVFa+UA3bJWNgXlIgBf0j1cSuWzcczfdDyzvwVneX7S6NUEHbVeK3EGxd8Qr1Dx73ERonx7gT7k56mWLJDpV2cTOGniuxUfgJm8ky1kbKHm5mHOPKsyG+wp+JPyfkvvzArjW+t72MIf7szF1UmDP9tG47fRWgfFnZaW1lMGM7q35CJGdiddqLHtU94KD1hUbR68C48j2y3ApRAnKfQu7Q0orQYuz3LiC0BfNOIlvHAzhpy/kf65P2pXuZN1NJCDLYI5hTd4Pi1ievc/gr226Aklbk5GiWq97Vg1vMHOOiVXn2apGAGlcvDS6mJn9VKKNfAOAEvj6dOhmGc4qs630m3yZaZQUtjX/2pV5rAcTdLFdkUl7+U+8v8H7zwsfzZNyxfNQUwQ7wrNj0h+KXwAPaamRvHQJMjWmFWi668SgJrxUxAET2jYVvBD1//EQOLt28sPQoYzR2x25XKTCheeD5jhVP616FUnOjtgnQVv0vqb7CZq/3EWmjxhGNip7ka0ezJ68uh4gUqHpGEsrDiA2yOHaARAExD1c5h+ZxRXt+nH/9AoxC5XkYsu7ElNJcXmOakuxhoE8qXJVIgcMANSbvwCfTsHup9qBgeM+U/jiW1XPMgSfaCfAUsHYRxoJ5jI9lfaJkbzgHN06cwN3e0BHb79qoo6S3WTSNsrfoVm6r0QVSKoy2l22Hr69NFaMoSSLgxOKWoDLuZI5QVIJEyneOi6Fg5FC0dyd1zQYditSHjZoL13stS4VHn9frx0oPXVd++lqx9GTumDmTlC0PhA1jx+L0RY/qS37kTYc7oYUj8AccCWVkuTNl0ItBncMHV0RQVRyF4saC7t8CC2flSxc8EFEpIlVHIZ2yeQW/AU7+00NRGi9QazoRttg4IgL4sDabvqFRBcvLXNIEyjAORZYAOaomxXGApNNWjJhdVbWrWntC3IxNmVzZtaLIKrHZK+SgeRmFvaETnfCMX1QzxA1lFcdI5Yxfy3bzabSs1iV8qDazRxnibHREN32BAuT1dAqyscZ/ouH0optJB5uWB5o8gCko2We3oHJ+eClWLckteDvboSe9me/Dczl/3+qjMvmcdVYlUIF2DPdvua1BWUQRdYNYHyC2jeml5YhRBKF8p033gDMYuelvnu7Yjrn62bZXeNH48JaTP7TeeNNGgj10BOBJvPY8cotK3kaZdszHlWWyR84f/YVRlLe/o9Id8hN5AmPOrjBURM3dxoqIcf0LJx9ED0hZLW7+mI6RNjkwzMIL53xY8MPWRErmrm4DyOfdlJtUEM7YaGV29wpjCnDRo2QyK/QWE6vCs4A/QovUIRLe2M7CAtZd+J8L8ipnWv+h9EAjdopOzwU/9YfCV2dBo7NgknImUQUbf1J43EdnhnmJhMgwClZHpSvC0Ue6xhgLH08B0xQ67yNJukAp8XlDMbQUhLeLjNb5HS3+de8iD8gmHlW9/gOZ1scbvJ3yg+rypKbMOY3uskf1IkHCLZLadI6AfIIjWDVuMCS9IUzcCTAoSRqYIVONCUplvVD13eTdHZr4imFPkorZHXl78CpxCP2+xKWY+xP3OT1eIt54gx3lHQCX6xVL7OlkPnOjrcGwA05RMDOf5DCxh2f8uNlNKkYbg6mxLzxXMiHWzgX0zCkTEMIE51HY8xUzf2nuRRgOtyYQsO5Q1mpgTawe/HslmkEK4n21Dwi/HEuguDBQisnzrXS4Q9HMS4yOHnwsul8OvXRBu0v6gO9MFRTauPiDU70aHWnO12b+lupgVf0OzGh7YV0LgfMvVZm/H3zjyWxbwQr1C/75G1AqmYO1GtnBLiEeLG0mZopFeo0BVlACYGz8Ht3/nc8GQav1xxlqMGogoAkbd8KPE4edNnqgWcMofsgHZ0SjpHuqjSjqx2hbzAfuoJf2uqU4+WKklZKs2Iu3D4r3Rp8SVSgrDST5X3MsLp5MEz9FOkm9m6f7RrTNxJ9Lz3eQyWRwyBfD+DG/6WF1evOLQRYQW5tlWUyD8IIka6+LdRQ7bZ0OJ9N6z9PWvX/Pr1ry+B+UShKTqstRKMxFaIo7aiUTTY4NEzZxpBaiqORwBhAD3DpF//kccoAAhs0tKBCJPbea754AgCRwilpkL2/MDFoaHyWGeX7IJKGXsedQIZvEvQ7ym3c02tdnyDxBuH8w08sZ2WGf09pLKNyxngMmnMzdISd3pWudFPHAnrnPIFAOZvkD1JVW6ONK2qQ6OsjxYKSZao9yLOvT98G8fXY0IZqpHs2MGkiolpBqlhqZtboJdkNL/EfnoOYrz8C0sjPGtIwwfhL0F4kNOJTnZkKRGmNZTEHviPJ064vV5Teui0jolyEHXZ+qk20+sx+Yzyaa/nXPi+qHNf8rf+eXLAITcEQjiTnAVvmpAQ8X3Ea/2qlJoV+chmXsSLP30BkPeV02Tgl/yG+1cT4NDrcWugOK9jtT3QZF/8GeinT5Zq8gD1tXm5vLa85HHeJhZCcoYTfeT93NnD4MYWAlBu38xk/RhhoDtF8aVsv8KMnOZUxyD69sd0Cp8gprB1F1aeOYk4C2AO8wevzvfUbjzShRdN2t9v29EhjcICwkJ38cjaTaWiIWibXTziXgX6oguT7QMCQw17N/G8s+h1vFGsdk2xKnehFsILLtg+c9t0dzRARou41WK2kOsXpN5fkDhORRDHh//Hsco1MpXFxYfPkIDEGW2Nu8ZGb193EBxu2WmlrmvmA31ZYOIH+YZ2z6J9WK7MC01R4BCORKVWxOsNx7wQDK5Vma2/33lwBcAHcWpVXNPd+657BGG3LMAm+vOHvZYhAb2eo3Po8OtRmjVDyEXPFlOJrPLcDD8y5kt7QAPV9jbq0ZQY48GhWlBqIJ1uY82KdQmpciyZ4a/JxVd8lbvo8H6iJfvORD8+qYlVyScb+4fA6KBEPBmiZrwVg/xUlLqaYKWPD4RYQyMqeX68gBF/muQyHuYj+qxtaqveM+jAEC3taHuHZPop+YXiDJIdfofdSGvDh/lSMggYizZM38akj66/FXoVRtHHZdVWMCkI+NAuK6RxzHKehZ459G6cK/sJDaWoQE9BP4sfsgsrDWkmdI+ydW80viFNG50NDDSx6D8lhj8kJKIoa5/OZhF+ry2LIYi168c5cG2BSDkwc8yFi1+QjJCJvPmrpdeI4xJyojmr0NjrZlrP8yCd37fxNx/a+TNY0YydveqSi/v1VmiSRiJewSwY8rH13B2v86JfGvgKtqIyydvzooxrpvg2OU57asM2Ut9ByPIj7TONw99qxsXyyDWrWR6Xq+gMXDxG99nqoFnazegpDn6dnfSIzcw1PY7Df/HiqycvYmd+Uha7/R2hUvpPddRIoVmanRp7bM+FGNgv6eqJGlP3rNKHijk4B1Y/DS/icQsWu66Cm0IJli9JvBVMl0g0suUG+0O3z1KKxBw4QVkkbFC0MVaGOjaAxPeY3HEgvtiyvZmCHkSpGIvoLNDA/XUMevui8hR15pZe6/vFFU91OBO6daZ59jJCw9uDVdHqt4rS6emwyZUuLoXiwDQ28rfDGLsQf9y9UFYMJV8uGBksauAFetQUQJxnrhEm9XMpbnPrwborFF9F4IyCK9DiGBW+bmomhLtmizEPH9O3dUyRX7Md/o1eWCSNuegcIYCJYet1AbFjOhzj2Of/TjSMTXEENMhojE+T9lCRC/2zqGPw58K2RFgRzaD6IL5S6b4umaLk7YmvMDwiIeF5n6Ek+lUP5JaYuP6SW+fE0RWtgBjep4P09c363w5aivay5PNxb63p5HtFabK6VDiu41WBJsr+sVgniNtolW7MD5AWzwYoxK80lWuh6NpHgFJyBzs3j0DT5FF2o8h2Qf7HNag2gyvnZe1ok/XSXCDfgC/pwULuJXE9Gheb8buNQE4v1YAn8BZuG7e7cExLXXjkPTlg7pS3BTY/JJKXvRAYuSnadrCYQNS5mo9t/tMszHV0FUz0O7HnJjfHCy2hwclD/0B+d3ntXLYEm3z5u2oluLZDtRr4EOcPufM3Y6IQChYLhgvYcr0rmkPJqi9Gh92U8Bp3N2wcmcdb4radqF2ACtYcKW/gVYETIRzCea43tZ4gVrmmz54i0hQzRk2BjwlCnKFJpl7nm4Uh2oWIALkpMlB+7GenZ3tNoHlxGwWaqd0TjZ1f0qXI0H5ZPnGs3SJGO+7qqXO0a1BmDGTHm1YOl92RCpuYXB7mfgrbo6kWacuZMJGFaeRKPpmmCS9GMDipAnaVbHYvthfsi3lec0HOvoBF556odPUERDhMbfnzaB0CKD9JBTDBKYZSHc08B0W+yS7SVREZKw5uMPsvBY7zqFHDG+U9isLpqH60jQDRoM8joRTC6STkBEWi0OooS/Q+/0gaK5vn8S5ZFFeHNym6mXLOxcgk4goC/AMB4DODrKSU09l1ApcnLcZbCfgQ1+pBCusW4hc9A/zvVj7UZ84bhLxeThfgQioDgxiCsk0C0w3tAiuFyt2kXfytQh1Bm+Wn3ixY8jcNd+RNzUObOh558YP5WgAliUzW1+s/QMauLrK9VjITX7+qquPA+jG23RVUlT3JeHmM2CMAUKiDLELxv4Znu02mpjWUwEJjQnA6sbx7D4JfGrS23pBuuXt9lv8BYi7hxb+tHPNGMURdh908jPjjK8vUz3MvKxEy2iFxsFP5oBfn/05hUhzbhrvGEPkjiS5ff8jdVvq+3qehBCVr5n5lEKBc5Cu6WSoulqTsleM5FW1jMHU/AR368PbN8pKe8gpBa0gRXYHeTV+8tFWwVvmBiu4dmYzrmlqZ2T0OE3jiAHnfrz4B532aJiROeVP74qtXwn6PAv7DjyxlaxA3kv75bJUfjUyT/zurnAjK7hm5BoK4XZHYezM7uh4F2NLHGpipH3trAo4QLxZvsglqY6dFW9LdaCSVVuTLjn0MXAcq1FxJYCut+WzmCwX4uV+rmvrvwF3LKb473c2FPX72KaKk/wRsrpG+JbxUyoV2yFMcPZbnQjnFUTCgr/dKKCAaQknH+1FhB4Gih3MygCjngCLfs5J3PjuuFsPjEduoJ33jMSJ8K77Ld5oj/xowo3tTJkSQRyUJGKilSFTzCXrAgd8y5amuxZCP5/BQQbBU1e6jIJ623jbVzJm/oHtmUX/eiVlX2kF2PRzkjXXiGUptRtCPA7ImAWihYNP+3In9M5ShsbkrLXzZYF9f9Z+yEz9SR3IpBmoU4MIBnWto+MvxZtSQrP0SNrVyTu8AThk9ah8brBEzFsZrBUkLlxS5duPczHOKJKlSiCqaXwwWMieA5ywenWpIYk5mNRWzLg/7xKvUvapPLS82pZUOzrxL2qkndZB++fewczU63vK6FhDlUSwTzULUhoIOj9dlB0MvK7/0L2UmyEIHeN5nrYAZrwqATeePO/EqZ5peeP8T/N8JbwzR67M00lrPlBeK7a6yQDuZUvE9Uvk1cH1j8oLIuWyBgUCVK3L48na6ddNZ+pCMyfH/tGcQZrupH3HyF4F6OirPsuovHfCtTYsNlehrFmjiKg/E32lOiAcwUxgB6YNWAYFTnilljjLT3dZtCZdV0jqJUncQeOnC/LYqlSAty0997ZcNTe1Du9x1o46Rk7voLKUbhsdpn5PzTMvhRd6SuRWP/7jaoohXW2ol7HmWlDDpLJkb4n9+EMFETIVZwvEqBCryjgXfIFS8530ACFTxVghWOCxkK8x/I++VGTtOn/gzl0TsihMX/84Bq/ujrGXpzOcAhT5YXTyoTvtQX9qVokmnt0WvLYcH4bf30WTBLr3fIRIfFlPpAhQoaiiok97NgodbQ+6gM8EXH3uRH9WwRZGLuQVkvDXw5yxD/E4wVStJ7IhmYpY+sI19zXiCM8yQ9gU1JD8mufat5b5lfnxbGlBKP+S9+w+BoVQN32chKNcqn4bOpVLGx4TsDyFONSfOVfJSv5di89jCZQV+JEa1dn/iIw36ht8530swJWKweO2j0YRh/lmblO0aa2QHqwPK2UZ/XR+IoVVePVldho4mEDHQP4AGqZkrCOWlxqtTA+/AwkceujEvuqerxvR4X+MfxiAbXZltIO8inFoyRoLxWdJlHreS1jh6z/pWdF7Tf8aZVSeVKzyZglUj7yU/w+FwJFfWUcmGJ+uuDENUk6CIjb8LmynwwAohTNsmrn0W/DeCuNvQWOQux0OTARc5BBXdaO/QTLTuopm0G6r8FI+RgRX5FNwlvMj3cGP1Z0KYM169A3nfFQ88fdAW4fTEqi98ODCxJ1ZnWaW/0Fdxe9Q5qq5Y4beFLgoXaonlvemu+uR5vWMHxG7SWMAsTJ1mn3wrZvo0LGa5lVb10z9mD+uUwIJc7d4z9Q1PkJt+A41I7U+cKweEDfrqj7/jBDZGma0YdnEvwqZRdzckDWnOWnpQJVMON0heC51gQCV1CAvfT0yj1e2zTttYJtmN6UIT2qaEYaJtA+Vne8Ocm7k9qWmlwGouFdDotxjODNZ25HiWOLBhoB6dGM+3eFfWGnHWDuKLCrcYln2OL7aDsOwaEOMHoYxodcm7MmYWvDA4G5DI95/j1TAh4QsZLTxMCauUUbnlUaS3ExiDt6XyRpEqmUFVS7uJdGrEizZBm56OuF6KlYqPAj1uM3POd8Xk2PIUEzzeioyAHUpjOY/ZDCjYBRpMCpMA1KlxwkBJK6kQVlNAf+4OQPom4Yc9oSMBRLmUYgifldaX0kWYnj9L2jRhocxeYCL3LMb9tvRCgS+8lT2mezEdcdQpziRIyOESld9olt5iAIXgks+ZfWnEhT+MtYsJDJv4w6mC0SFBmAc/xASVmQNIZcPGxwOjhKq4bq4j4nL12zDprEgzQcJ+tyI02gBmPfYi/GA/0yqn3HmzC3YJFcS974+Yd5dG+HMo2JwXTaJg2m0/BpBHVfQCzwVhTiiHkWtR6WjD4YSBAi/n0LFhIKN2Xi16tZjbsIKgt+aQFUC5z2tHFnqEeQnc4Y8uvMSoBIfH+OqrGgjaJbUrRYgVczy6rZCd06fB5jDnqv9ooJcvnjgXQH6ygXgAAfLci0mWMt+KwrkCsfRhVssj7DHkfQM5f0Ptx8PkcQxmZKWnbUj+6VwnPMwQggdZQX/mX+y4/fs9EliL4D3BjA3LWbWavKb88fn3ZJ3GbBAq0vFjYIVKQ8edH/85zR8SMWWOib5NsbWmI/9dopple84U6ackakdTO5LVxos/TeKWIrokutT3cBuspkHjEdnXGmtsJu1U69A0bC5uRzKSqluEM9EnPcB0GfpL/SCDLDMiEYzMCdJOg6/f34/y0BC8zYULizbez0D1otEMphohakOl2kBC8a5i2BTcCasY0Phnz9YtlP/gVQ59ZCjgKpNtF5vvrJFTjnhsaCLkgaOjf6y37U5gJUDuZGPyXdwSE/9V88NmH3cua+M2PlXvKpHGDW+ccAWKR7w3VTxlhjOH62grmLuRwEtt5tMCiJcCUabgT/Xy5+jrpErNv8kFWDszjsEjkOsnCiBg480yRsbno+1i0KQe57drdUWg19J+9RprlT9MzcdKdVv82bw1gAfSSkLTHJdRbUfJfBR25iCIXPsydY6BP/RTguB065iJptL7nI1nTQkvDn82UZ7w9oZE5MLnGYPmBujPZbLqcSNeXc1QUgu+ZUbNFDQKinAr/3EQcGlRQLp2fUZ4QT9oHrjTZAaMJPEW9yAGDSaQGQ8yEPoKNAIVohjvUMx4MdiG6m7TtRZEYpF1dCUHQK2gcKXoPahGcgEDtXXWTrNuEh1S0ADl5GUPHnx01jIcZ3csdM5O6UV7+IgcEhbXcpq/j+C75vlgq7LJuTidvAKAInr4npMebdXbYFjgU3wuME+AbXNxj7kyFYsG74oo7DTNNk0S5dqhoVaYZ4kOgy30GZ431OdkvoYn+mGsKCJ88eus0oHnoCMfDp42sgn7PZdcmmCIEDhKp+7Lhxc+lNiouITWOeN62ej02+7b/S1/504ZskDNgX/oIGCFZe8QShrWrop0TFvNjtRb52R2GtEkKrsDGRPav9y1yiUhsydYQ8A6epJdMIZmZgTK/5mjH3oTltHX4iG0krDQObuEg5+i1XPJEn1Tznt0DKEi3pG+TjK5DymHcf8dwfOsv44BK8yg5b/xChTnOWytB7LQ+Jab1BGb8y7+uYFvBSNTTM4mwOf0IstRfjNwM+na9ab6UIWqyLoC0twVBRJPdWpUyBI7bXnKiinesAz6tII4S+r10PD4Q0tVYt/IkDDmRYd3MxMQ4GFAwi21Ft5NhrmRdVgKGw9V/Ni0YztEUwQdaD8Txwt0Im2gmHVKaLIe/ms0JdK6y5f58IpuKFaAnOJ7FCP0R7ZZxMeQfZ1VLPxpNYAAvN4r3UBg044jKXrQibf57Fr5pOQNvHHFMAMi4VgFPXZcWx78srF+FT9mGLOYZOw6L0iOVBNNz0CXhgMLgjhEtWfju5SW2PFleXaNNq9/njMNs9libwt9ObAuX/Ul99adgQMXBfg+wiDUNvZ4Rddh12m3pEaCF8QKr5UH/25BGxj1hl5y/tLju7+zr9tqbnpppoPad+0oQBDRKHzEXJ7UiUHMdlvBWlxlOkMvmKRf7l4wELXuJZ3h0l3t36U/mPJCyHv9XjkPOgFcZdxT0qjE0yoM/IxOE0spp09X0vhr3YKykXbdFye/XT5UVw5zoUH9rGQ1X+ETmsfBxS5CkNRKW7ojOafzqMITF+W9wYYGyuly1v+jtaWUlxzJM7VDxPk/4kmfmbpGiyx8EJ/QzaH8kBZ10xzZtO8fKzfrifqlaGhme+H9o64owzU2ZRGtxyJl+vUDLnRxJmuTADZl9x8byCf/ld6WpkbGFee/9lTDKIr7Xo1ak1Yn5uTQVYh2ftQ++tBkb19E9FlM7AkdZt9I1PXzILzHp8QfYbUBDkeD9GU/Mn7XfNJjB5IwO5GoPK1Ol81qZCJf3KHaWLLf2onWxOed8/JVJovWTlII8TD+y2PAz1OqIQMqF3Y81o5Gji5cFiJFsBSkrN/cWwN5zz8BPOUDFUf+x5WIod+8zrP8RnJ8z2upbhKFwUK9DCphfryeAIzi+RlIdn4ZgmIdXN8ALQQlow89H+jcdyMq1LxT0sfB8DabcuAoZWpOhItHonGsoOKktCGWYtOfIivIJqa6QK/NdipEZwJ/TnKZ0F+HrTTZjunJWkW4sm/SEjFGMJ/eGYDmdQAVC0otU0qjAf2oOZ7z8tc1Gp0UpTs+oE6Pmz8LKqxKmOOR/a7pINH6SAbmJOuh07PoYmzSnv17F4Fv5k2+bVqbLcBpSFMzuCGaT2j95J0ArWwUI/I2VS/HcuTQIzVVu1eMY1YomZffYGG1x8x00bV/yFbRnZe1VnkUpb5VsPaFpeeR7eBzE3jRKcw/rjfwxpR52MKJvqNtKvCdHz+v3ViFis4g+8vyO9rBamKxz3vLhZ8tDBmkbNkhVL32q4OvftSIURypnIsZmcV1RFYMx9EmG6AJTNrWKOWRF3gui7Xs3+jP/nPO3T1wH6GmnixOBhwR/PT195oZMK9iLogfH5poDbQdJze3rdCrJMOaD3EbAG/WbIq4KJLd1fFrNU8tmQX//hsXDEiJwz1BxrqYLYr34+BXLk974euKPep99QPmyess0wVmoHJ3bkkHR/m/3fD1DUfKiSRNXKy4GPhthhy5Vrlr3Mis04whbMxOVkrZwelOfQBiT6RxGlCMS7APTiaQkRNu8/afSYZ2cKFtzv3OlhEz7jjwUj1mmkn3zMswj5zxDwpNfkD+2Q6H2X/JPnwhfoFK5iGvuSM11fwr8ohUtLa+gQqcd/AmAb0LkJd3lOF9ARVAym38GJKHpV9CeK7LFy+JAMmm7WGiKTz7ItwI3LlfwwNw8TJnxrmv0DHprdwhO9kwl0YHO8aTxDVUp4O5c8KyDoYv8MtKDhjQY0UFImbM02DfcYlexT1my7Vd29YyxHzw+AINR4RsW5OPCwBZFSU7O0Em0R3Vx94IKx0PuQlnIWyGloitProW9HtNERgGj4wYfa/S7YtFZyoMOdQwF+s6dEi8ryBnD6EXVIvOX9AZlQlVak8+bjSKevYAn/o00RRKhLdBPKW4TyZPM7omCP06caVeeFVxuEFqmgpLp3ohx6KnvykFZnJZU47Fs3zEUV5emaGBFYcJLJZrf00rHrKqwctZtaBzj7qLC67NkWilRTkCtFjb4KxYWQiyKCP7XFP2pmAwFsZKGGG0KSaWWyWjG+Vp6iwbqy/0IP1M8dBLRDCg1BSPXpFLdBNETAekKge5DGD945Rj9uKdRIngd6GRbjUoMubpWYwMsBfpVJSubgfB//VDMehNWu4MSdnri947PLUcYnuxcjFu9cPjUq70fy0SqewOtlgNJnr4xnOaCtAmlvcdWp40itOcx5T4ZQtVC2Ze9huY1gIQstvMtYyjTloUdJ24tMwDCjdF/lLbahTz9aDiIgQi3cF0Ep7vnb5dqvUqw8My497YBoCrhLWoTYR939+kOYmOFjj6SItIXNE/QA3AnqaP3kVrIp6h3pKMCKiCsIN2cxzDG7/kXa9ancw5m1GcKo42WnPBcgieeZrmX3RXsH4IAg/KaqNHhFhVAVlU6SPcLu/0OXq6ia1ONxC6T4f1WxDw0KQuxLlRFB62adMUi7RWIHraooL6Nc6wrA2g+E7yv9MQV2mfsQTEGMS/l2/2uqVyy3qeCYFZmI5SP32nEzrt4yjxMnCRa7TmeTskkaF6rQwkLWjin9G8angGiXbWH0jSANJr/E4vLjClv55xd2vL/s0eiYBTnnygrExdOHLd7QHhiThTj4OaxjQIitXynLzqxMKAs4fhHQgVgjA2dQrDWvkrl9IysLHXVbMS3DV9ZLHMlaMC6vhP3NQy6Wz8XcFshGS3NRL7BccAFfDp9lDqCqwHzClqnUEjyaswc4SWPlYb0jS0mRVEXxKUQlrSHZpmitC1P06U1/Fo8Z5dv8/1yiOXzIeqqZHFRu1TGxMuSbYA86RrM1fH4ne6+Ok8Yvt8wSwvNSZSduHeez/3q6OoPSEZNnGVn9BxMjYT9FZDbntN1T+5OGWUXInAbpj4c5BGMbIYmHG3D0e68H+5Gx1yVgIhoeZARX1vuXJqbr+mMLD26196BkpwAktydO5K7aUWCTytWL81BO03EqD09v8Sbxul9+WxFVVHYBzIqfXSEHLWaDUTLzl23SpYVnqO6x7AO6tiZ3Y9sKMpptqLBBqcqjl0Ss+RPy2CsJWZvHuLRHQRr6WmC/CWquvSNtvF8wiyfQ0lD+4rpH8RcSjuKDj1wghyZzpLnl6a2YaLo+iPghESdWw8svnK3gcDkR6JAQiC/QuXZ9k8phLqLq3uw7WSljuCDqT/T0yLK7cdM12IM6AaI5sdJLAecspw5xBsLZe7xtkoF1BLJAS9RMsOJDYwoAFs/0HU8dMebbYa+/BeOvWXaltTfLpL+CPxJzOdJTHjkglHk+pBRkln0Qvty+Y3JHfnCquui7qQFHHSr4+wQaqeF7o884eTGxzfHjzF1ecAx/Kbi5E29Lu/qPbMyKIj8LhaCFnMzt9XQWQbSgqsGLc20qvUs9BGHo8H7GaMQ9T2J+Bye7qrtAMp1F+DH03SK2hettoztTh2yOjSoQIRYwefeZUnugWIZGJsDfKgUaCtTiabNlJfo13GoU9nZ2H3K6AMUzU59GITU77Hv+YYINh/ds4qAxUa/fGMGMza4YLXKTvuTWaXzIzaZbOJu3iw4r/zF5anCRFuJQU0bEHD3c5OfMj1MEQF1100cbDfINna0ceoKn1mhvIIEeuj3+uRPs0FAixIcuZyKIA7OR0pbYQm1/oj6Y8EBi3+PrNGZ2RzrkvNT0j10EShIyiVQ43fRqaFKxM7GsHqLgV8rsZzybO+/nWIJihtgO/zytb3FrPFUOJ1nEAAq9ITyGQjb/8sohyWKJRtLx7beTLysKaQrJVvoFwQOunZlcuZc/fCBT8BwP6qEPU0YPZ57go96pnqhkfhLsDhgXlGVQTuG3ZjpGSj6dNrpnvex/NeFDxUUrBdgEdv4sTx9EC2S6bxqs7mm0otJEIuO1SWV+02AMH3FcqWawqmppBOcW029b1DE15FZjt2RAOy7k3dw4Po8eWDwtumTQvuHitsqHkvaQlU1UoVkP+IVtUMY04nxTlilsrmV6ZwGQTTAiDK2S605BMcXJwt0pSnBIyKLOAg7c89Xz1BjVObg9SW/XH4ykpH8LL4KHqBHkn4UAiKpweEBPzYR270EJ7I9exBlwQ2VsSGitnLFI1DyEkrG9UShLPevTmoLnA7SwpD0r/u6n3m+tQopKGgf9vLto6A2YZpbuHowsphAcKlvYPu2qz7iFivT0W3WE6Qx+ZtJ++DD8A2XaZcCL/4sWIV0mf8T60h4qU0gCIiVZR38AbBuUobwCvzq2t7ABi8efafLiZk0L2+1Vgi635nJbyHttcXA0wDlQM2P6IM6bsLLOFklvF8ym/tdCBdvASCx/PAn56yEHdsvaAOmEoa0VFPNYr+0SBW1JdGiYuzArvl3d+IPXbFWFs7CpD1/5v5arru+CBLP7nrd/HjidohtT21it6BQB/9PXbfTNjBJk4OMvCQzk9mWRKxNonIfAo3klMnZjmonVYeVPGjfcnaO4N5aDKnxeDEqNnb0QGrK5mwuATC9d/Yb5RjfO65rOCcb4NGKbbKSFZqXTNOvLQuf/CoCPIbctEw236MOkvIZmC6e58/1sHq5Q+TPNavAu6XOJXivWi9qfmVgzHCuPKEIMR2kdpl8hD1pg0Q29LVHLyDuMW+LZqDGkf1dmQtm08NNgToQ/K7hQLqfiXNjeWXG+v22OaHn562PCQkSzoJ0kHZUnTlFqBgv5oDFT6ZlsLn7a0a0TWdSG9I43YYCXmOQ0Z5+o9wOryAfBKNcFgXdRi/i4O66zStKQ0gPjIFXT3Gi+6lVx9PHI82HtAyWbCEgX/VXbtNaIQ4rQ7rWBoNu65yDJ3PeHus/7ZKSBbwTycKWvXpzm4a1ePC4IN7wkvObXVQdJT6VK/PdQk9FmQ+DCNfMi3y0kRMJxh2W01i0mTyH/XOVTSyFy8Kv8DPhwZpbr/OAkENBXInN40ojhKLHv6cYsEW/woobJiAcZ84/ogVQ7V9hrjqaUeWBhTBuFDUzib6G4fSenek+AY+Yjm89++uoYUctt0spRtfn/nRkywOdiNlslg/noXW1ny7CtsbrzV2WT/zpFbN8Cqev3Z0Sro9cM5UrW4XOe7AcP6j90D7P3IIjXhiHi823YGxlC4DLhzCOhcmHqIN1c+azb5ly7vnGrEXJ5ztTBaD2Cc+gk4TZkbLHo21jZ9Ly6rPdnD/JaPSAdnRt86EQ1BEUCHBxbZQZdDzG;" vertex="1" parent="1">
                    <mxGeometry x="330" y="632" width="96" height="96" as="geometry"/>
                </mxCell>
                <mxCell id="20" value="" style="edgeStyle=orthogonalEdgeStyle;fontSize=12;html=1;endArrow=blockThin;endFill=1;rounded=0;strokeWidth=2;endSize=4;startSize=4;dashed=0;strokeColor=#4284F3;exitX=1;exitY=0.5;exitDx=0;exitDy=0;entryX=0;entryY=0.5;entryDx=0;entryDy=0;" edge="1" parent="1" source="12" target="18">
                    <mxGeometry width="100" relative="1" as="geometry">
                        <mxPoint x="280" y="560" as="sourcePoint"/>
                        <mxPoint x="380" y="560" as="targetPoint"/>
                    </mxGeometry>
                </mxCell>
                <mxCell id="21" value="" style="edgeStyle=orthogonalEdgeStyle;fontSize=12;html=1;endArrow=blockThin;endFill=1;rounded=0;strokeWidth=2;endSize=4;startSize=4;dashed=0;strokeColor=#4284F3;exitX=1;exitY=0.5;exitDx=0;exitDy=0;entryX=0;entryY=0.5;entryDx=0;entryDy=0;" edge="1" parent="1" source="14" target="18">
                    <mxGeometry width="100" relative="1" as="geometry">
                        <mxPoint x="260" y="583" as="sourcePoint"/>
                        <mxPoint x="350" y="690" as="targetPoint"/>
                    </mxGeometry>
                </mxCell>
                <mxCell id="22" value="" style="edgeStyle=orthogonalEdgeStyle;fontSize=12;html=1;endArrow=blockThin;endFill=1;rounded=0;strokeWidth=2;endSize=4;startSize=4;dashed=0;strokeColor=#4284F3;exitX=1;exitY=0.5;exitDx=0;exitDy=0;entryX=0;entryY=0.5;entryDx=0;entryDy=0;" edge="1" parent="1" source="16" target="18">
                    <mxGeometry width="100" relative="1" as="geometry">
                        <mxPoint x="260" y="690" as="sourcePoint"/>
                        <mxPoint x="350" y="690" as="targetPoint"/>
                    </mxGeometry>
                </mxCell>
            </root>
        </mxGraphModel>
    </diagram>
</mxfile>